<svg width="512" height="512" xmlns="http://www.w3.org/2000/svg">
 <!-- Created with UXWing SVG Editor - https://uxwing.com/svg-icon-editor/ -->

 <g>
  <title>background</title>
  <rect fill="none" id="canvas_background" height="514" width="514" y="-1" x="-1"/>
  <g display="none" overflow="visible" y="0" x="0" height="100%" width="100%" id="canvasGrid">
   <rect fill="url(#gridpattern)" stroke-width="0" y="0" x="0" height="100%" width="100%"/>
  </g>
 </g>
 <g>
  <title>Layer 1</title>
  <g stroke="null" id="svg_26">
   <g stroke="null" transform="matrix(0.9978281050455027,0,0,1.0208034623029643,-2040.9958738698056,-2096.930935493171) " id="svg_5">
    <g stroke="null" id="svg_6">
     <g stroke="null" id="svg_7">
      <path fill="#000" id="svg_8" d="m2115.114821,2053.245881c-18.773,0 -35.84,6.827 -48.64,19.627c-13.653,13.653 -20.48,30.719 -20.48,48.639c0,18.773 7.68,35.84 20.48,48.64c12.8,12.8 30.72,20.48 47.787,19.627c0,0 0.853,0 1.707,0c17.067,0 33.28,-6.827 46.08,-19.627c12.8,-12.8 20.48,-29.867 20.48,-48.64c0.853,-17.92 -6.827,-34.987 -19.627,-47.787c-12.8,-13.653 -29.867,-20.479 -47.787,-20.479zm34.987,104.96c-9.387,9.387 -22.187,15.36 -35.84,14.507c-12.8,0 -26.453,-5.12 -35.84,-14.507c-10.24,-9.387 -15.36,-23.04 -15.36,-36.693s5.12,-26.453 15.36,-36.693c9.387,-9.387 22.187,-14.507 36.693,-14.507c12.8,0 25.6,5.12 34.987,14.507c10.24,10.24 15.36,23.04 15.36,36.693s-5.12,27.306 -15.36,36.693z"/>
      <path fill="#000" id="svg_9" d="m2148.394821,2206.845881l-69.12,0c-13.653,0 -24.747,11.093 -24.747,25.6l0,298.667c0,13.653 11.947,25.6 25.6,25.6l68.267,0c13.653,0 25.6,-11.947 25.6,-24.747l0,-299.52c0,-13.654 -11.947,-25.6 -25.6,-25.6zm8.533,325.12c0,4.267 -4.267,7.68 -8.533,7.68l-68.267,0c-4.267,0 -8.533,-4.267 -8.533,-8.533l0,-298.667c0,-4.267 3.413,-8.533 7.68,-8.533l69.12,0c4.267,0 8.533,4.267 8.533,8.533l0,299.52z"/>
      <path fill="#000" id="svg_10" d="m2438.527821,2198.311881l-17.92,0c-33.28,0 -64.853,14.507 -85.333,37.547l0,-11.947c0,-8.533 -8.533,-17.067 -17.067,-17.067l-85.333,0c-7.68,0 -17.067,6.827 -17.067,16.213l0,318.293c0,9.387 9.387,15.36 17.067,15.36l93.867,0c7.68,0 17.067,-5.973 17.067,-15.36l0,-184.32c0,-28.16 20.48,-50.347 46.933,-50.347c13.653,0 26.453,5.12 35.84,14.507c8.533,7.68 11.947,19.627 11.947,34.987l0,183.467c0,8.533 8.533,17.067 17.067,17.067l85.333,0c8.533,0 17.067,-8.533 17.067,-17.067l0,-220.16c-0.001,-68.266 -52.054,-121.173 -119.468,-121.173zm102.4,340.48l-0.853,0.853l-83.627,0l-0.853,-183.466c0,-20.48 -5.12,-35.84 -16.213,-46.933c-12.8,-12.8 -29.867,-19.627 -47.787,-19.627c-35.84,0.853 -64,29.867 -64,67.413l0,182.613l-93.867,0l0,-315.733l84.48,0l0.853,0.853l0,53.76l23.04,-23.04l0.853,-0.853c17.067,-23.893 46.933,-39.253 78.507,-39.253l17.92,0c57.173,0 101.547,46.08 101.547,104.107l0,219.306z"/>
     </g>
    </g>
   </g>
   <g stroke="null" transform="matrix(0.9978281050455027,0,0,1.0208034623029643,-2040.9958738698056,-2096.930935493171) " id="svg_11"/>
   <g stroke="null" transform="matrix(0.9978281050455027,0,0,1.0208034623029643,-2040.9958738698056,-2096.930935493171) " id="svg_12"/>
   <g stroke="null" transform="matrix(0.9978281050455027,0,0,1.0208034623029643,-2040.9958738698056,-2096.930935493171) " id="svg_13"/>
   <g stroke="null" transform="matrix(0.9978281050455027,0,0,1.0208034623029643,-2040.9958738698056,-2096.930935493171) " id="svg_14"/>
   <g stroke="null" transform="matrix(0.9978281050455027,0,0,1.0208034623029643,-2040.9958738698056,-2096.930935493171) " id="svg_15"/>
   <g stroke="null" transform="matrix(0.9978281050455027,0,0,1.0208034623029643,-2040.9958738698056,-2096.930935493171) " id="svg_16"/>
   <g stroke="null" transform="matrix(0.9978281050455027,0,0,1.0208034623029643,-2040.9958738698056,-2096.930935493171) " id="svg_17"/>
   <g stroke="null" transform="matrix(0.9978281050455027,0,0,1.0208034623029643,-2040.9958738698056,-2096.930935493171) " id="svg_18"/>
   <g stroke="null" transform="matrix(0.9978281050455027,0,0,1.0208034623029643,-2040.9958738698056,-2096.930935493171) " id="svg_19"/>
   <g stroke="null" transform="matrix(0.9978281050455027,0,0,1.0208034623029643,-2040.9958738698056,-2096.930935493171) " id="svg_20"/>
   <g stroke="null" transform="matrix(0.9978281050455027,0,0,1.0208034623029643,-2040.9958738698056,-2096.930935493171) " id="svg_21"/>
   <g stroke="null" transform="matrix(0.9978281050455027,0,0,1.0208034623029643,-2040.9958738698056,-2096.930935493171) " id="svg_22"/>
   <g stroke="null" transform="matrix(0.9978281050455027,0,0,1.0208034623029643,-2040.9958738698056,-2096.930935493171) " id="svg_23"/>
   <g stroke="null" transform="matrix(0.9978281050455027,0,0,1.0208034623029643,-2040.9958738698056,-2096.930935493171) " id="svg_24"/>
   <g stroke="null" transform="matrix(0.9978281050455027,0,0,1.0208034623029643,-2040.9958738698056,-2096.930935493171) " id="svg_25"/>
  </g>
  <ellipse stroke="null" ry="56.499996" rx="55.500002" id="svg_27" cy="69.937502" cx="69.500002" stroke-width="0.001" fill="#000"/>
  <rect stroke="null" id="svg_29" height="337.999996" width="98" y="163.4375" x="16" fill-opacity="null" stroke-opacity="null" stroke-width="0.001" fill="#000"/>
  <rect stroke="null" id="svg_30" height="37" width="2" y="258.4375" x="87" fill-opacity="null" stroke-opacity="null" stroke-width="0.001" fill="#000"/>
  <rect stroke="null" id="svg_31" height="335.000006" width="104.999995" y="168.437494" x="181" fill-opacity="null" stroke-opacity="null" stroke-width="0.001" fill="#000"/>
  <ellipse ry="42.5" rx="18" id="svg_32" cy="242.9375" cx="287" fill-opacity="null" stroke-opacity="null" stroke-width="0.001" stroke="null" fill="#000"/>
  <ellipse stroke="null" ry="38" rx="58.499999" id="svg_34" cy="231.4375" cx="279.500001" fill-opacity="null" stroke-opacity="null" stroke-width="0.001" fill="#000"/>
  <ellipse stroke="null" ry="4" rx="6" id="svg_35" cy="214.4375" cx="298" fill-opacity="null" stroke-opacity="null" stroke-width="0.001" fill="#000"/>
  <ellipse ry="34.5" rx="68" id="svg_36" cy="214.9375" cx="367" fill-opacity="null" stroke-opacity="null" stroke-width="0.001" stroke="null" fill="#000"/>
  <ellipse ry="25.5" rx="84" id="svg_38" cy="187.9375" cx="371" fill-opacity="null" stroke-opacity="null" stroke-width="0.001" stroke="null" fill="#000"/>
  <ellipse ry="55" rx="67" id="svg_39" cy="234.4375" cx="432" fill-opacity="null" stroke-opacity="null" stroke-width="0.001" stroke="null" fill="#000"/>
  <rect stroke="null" id="svg_40" height="276" width="103.999998" y="232.4375" x="397.000002" fill-opacity="null" stroke-opacity="null" stroke-width="0.001" fill="#000"/>
 </g>
</svg>